<svg width="322" height="322" viewBox="0 0 322 322" fill="none" xmlns="http://www.w3.org/2000/svg">
<path d="M79.8582 106.814C78.5598 98.0347 76.5879 88.8485 87.7435 85.8672L183.877 71.9919C196.892 70.1125 203.935 68.0066 206.358 84.8465L226.458 223.723C228.126 235.1 219.715 237.668 210.585 238.98L160.424 246.213L119.685 252.099C102.935 254.53 100.606 250.885 98.3772 235.137C95.0364 235.633 91.977 236.449 89.0057 234.286C85.4017 231.662 84.4858 226.509 87.2802 222.96C89.5277 220.106 92.8121 219.941 96.1206 219.5L94.2374 206.451C91.0167 207.054 88.0418 207.709 85.1251 205.758C81.3659 203.243 80.593 198.039 83.2522 194.431C85.3942 191.526 88.7126 191.298 91.9833 190.832L90.2433 178.775C86.9119 179.251 83.7566 180.094 80.7853 177.889C77.3136 175.311 76.4973 170.121 79.1787 166.694C81.4447 163.798 84.6066 163.568 87.9915 163.172L86.2374 151.018C83.0577 151.5 79.9581 152.266 77.0857 150.277C73.427 147.743 72.4541 142.734 75.082 139.104C77.2692 136.081 80.567 135.807 83.9612 135.245L82.1605 122.768C78.6594 123.287 75.628 123.936 72.5726 121.661C68.9742 118.982 68.271 113.795 71.0783 110.285C73.3349 107.464 76.533 107.232 79.8582 106.814ZM89.3327 91.171C82.1139 93.1291 84.4081 100.498 85.2312 106.039C88.8815 105.508 92.2513 104.692 95.4354 107.086C99.0175 109.78 99.4877 114.831 96.8094 118.338C94.4583 121.417 91.0348 121.508 87.5336 121.992L89.3342 134.469C92.7949 133.945 96.0328 133.096 99.1024 135.38C102.737 138.086 103.588 143.105 100.778 146.721C98.4625 149.699 95.0428 149.766 91.6105 150.242L93.3646 162.396C96.8317 161.921 100.275 161.103 103.312 163.428C106.868 166.151 107.436 171.156 104.599 174.607C102.263 177.447 98.986 177.551 95.6164 178L97.3563 190.056C100.801 189.543 104.097 188.716 107.148 190.982C110.757 193.661 111.318 198.736 108.513 202.21C106.208 205.064 102.971 205.218 99.6105 205.676C100.002 209.256 100.685 215.296 101.494 218.724C105.018 218.217 108.268 217.406 111.333 219.754C114.859 222.455 115.491 227.433 112.751 230.937C110.531 233.776 107.218 234.004 103.913 234.345L103.75 234.361C105.249 244.736 104.533 248.712 116.446 246.959L156.381 241.184L209.063 233.586C221.242 231.836 221.928 230.982 220.245 219.925L204.739 112.555C203.248 102.217 201.94 91.8181 200.263 81.5111C198.89 73.0751 188.437 76.8647 182.63 77.7028L89.3327 91.171ZM76.273 112.914C74.2283 114.361 74.1582 117.491 77.1296 117.84C78.0765 117.951 89.9168 116.243 91.5422 115.887C93.4558 114.522 93.5535 111.257 90.9727 110.969C89.1044 110.761 78.8257 112.518 76.273 112.914ZM80.9845 141.302C78.198 142.206 78.2747 146.275 81.6609 146.152C83.1366 146.097 84.6819 145.745 86.1455 145.534L95.2374 144.225C97.2447 143.506 97.6029 140.322 95.4135 139.616C93.7271 139.072 83.4404 140.863 80.9845 141.302ZM84.3881 169.145C83.7438 169.628 83.2189 170.143 83.0825 170.972C82.2708 175.903 90.5125 173.359 92.7788 173.032C95.0264 172.708 97.4356 172.532 99.6446 172.03C106.612 164.072 86.5124 168.837 84.3881 169.145ZM88.9956 196.812C86.486 197.923 86.5114 200.118 88.63 201.789C93.4909 201.154 98.4105 200.498 103.24 199.68C105.223 198.736 105.78 195.728 103.215 195.09C101.771 194.731 91.0983 196.446 88.9956 196.812ZM92.5147 225.457C90.4759 226.929 90.6288 229.965 92.8497 230.22C94.2909 230.386 105.892 228.715 107.762 228.277C109.932 226.587 109.065 224.484 107.052 223.359C102.226 224 97.3025 224.587 92.5147 225.457Z" fill="#465EBD"/>
<path d="M241.523 208.973C237.485 210.334 235.309 204.481 233.313 201.714C228.239 194.679 227.185 195.643 225.949 186.931L214.189 105.494C213.079 97.9728 213.267 91.1005 222.77 88.8956C233.839 87.0382 236.038 96.2433 237.242 104.563L248.835 184.817C249.985 192.45 248.055 193.81 245.178 200.977C244.182 203.457 243.469 207.057 241.523 208.973ZM223.065 94.4261C217 97.3548 219.452 103.603 220.2 108.894L227.574 107.829L232.195 107.162C231.432 101.687 231.165 92.5061 223.065 94.4261ZM220.964 114.191L231.741 188.87L243.737 187.139C242.613 178.659 241.293 170.196 240.07 161.73L232.96 112.46L220.964 114.191ZM234.455 194.037C236.051 196.27 237.764 198.411 239.343 200.658L240.552 197.757C241.145 196.144 241.774 194.534 242.31 192.903L234.455 194.037Z" fill="#465EBD"/>
<path d="M180.693 135.969L135.412 142.511C132.528 142.928 127.338 144.799 126.162 141.447C125.34 139.105 124.718 132.478 124.316 129.703L122.762 119.025C122.391 116.481 120.511 110.928 123.979 109.907L168.608 103.462C170.804 103.132 176.901 101.268 178.142 103.952C178.86 105.503 182.178 128.789 182.503 132.753C182.646 134.497 182.412 135.303 180.693 135.969ZM127.771 115.036L131.016 137.522L176.767 130.919L174.084 112.328C173.893 111.03 173.694 109.733 173.522 108.433L148.925 111.983C146.856 114.522 139.155 127.45 136.178 124.769C133.645 122.488 135.903 120.301 137.364 118.338L141.212 113.096L127.771 115.036Z" fill="#465EBD"/>
<path d="M183.686 156.709C180.044 157.372 176.322 157.772 172.655 158.3L139.237 163.102C136.874 163.45 127.178 166.464 128.836 160.678C129.09 159.791 129.814 159.305 130.588 158.9C133.446 158.374 136.383 158.058 139.26 157.644L173.04 152.769C175.12 152.466 182.061 150.928 183.83 151.586C186.456 152.562 186.187 155.878 183.686 156.709Z" fill="#465EBD"/>
<path d="M132.698 179.384C130.324 177.639 129.839 175.157 132.744 173.842C134.677 173.433 136.717 173.253 138.676 172.976L185.982 166.159C188.151 167.894 188.508 170.38 185.852 171.713C182.826 172.305 179.677 172.612 176.621 173.05L141.286 178.146C138.439 178.559 135.561 179.133 132.698 179.384Z" fill="#465EBD"/>
<path d="M138.558 193.872C130.914 195.211 132.558 189.548 134.812 188.897C137.484 188.125 141.76 187.779 144.614 187.366L164.902 184.443C172.71 183.12 170.933 188.725 168.403 189.453C165.598 190.259 161.46 190.575 158.494 191.003L138.558 193.872Z" fill="#465EBD"/>
</svg>
