<svg width="47" height="46" viewBox="0 0 47 46" fill="none" xmlns="http://www.w3.org/2000/svg">
<rect x="0.5" width="46" height="46" rx="16" fill="#465EBD"/>
<path d="M11.5 23C11.5 24.5759 11.8104 26.1363 12.4134 27.5922C13.0165 29.0481 13.9004 30.371 15.0147 31.4853C16.129 32.5996 17.4519 33.4835 18.9078 34.0866C20.3637 34.6896 21.9241 35 23.5 35C25.0759 35 26.6363 34.6896 28.0922 34.0866C29.5481 33.4835 30.871 32.5996 31.9853 31.4853C33.0996 30.371 33.9835 29.0481 34.5866 27.5922C35.1896 26.1363 35.5 24.5759 35.5 23C35.5 21.4241 35.1896 19.8637 34.5866 18.4078C33.9835 16.9519 33.0996 15.629 31.9853 14.5147C30.871 13.4004 29.5481 12.5165 28.0922 11.9134C26.6363 11.3104 25.0759 11 23.5 11C21.9241 11 20.3637 11.3104 18.9078 11.9134C17.4519 12.5165 16.129 13.4004 15.0147 14.5147C13.9004 15.629 13.0165 16.9519 12.4134 18.4078C11.8104 19.8637 11.5 21.4241 11.5 23Z" stroke="white" stroke-width="2.66667" stroke-linecap="round" stroke-linejoin="round"/>
<path d="M20.833 17.668H24.833C25.1866 17.668 25.5258 17.8084 25.7758 18.0585C26.0259 18.3085 26.1663 18.6477 26.1663 19.0013V21.668C26.1663 22.0216 26.0259 22.3607 25.7758 22.6108C25.5258 22.8608 25.1866 23.0013 24.833 23.0013H22.1663C21.8127 23.0013 21.4736 23.1418 21.2235 23.3918C20.9735 23.6419 20.833 23.981 20.833 24.3346V27.0013C20.833 27.3549 20.9735 27.6941 21.2235 27.9441C21.4736 28.1942 21.8127 28.3346 22.1663 28.3346H26.1663" stroke="white" stroke-width="2.66667" stroke-linecap="round" stroke-linejoin="round"/>
</svg>
