<svg width="46" height="46" viewBox="0 0 46 46" fill="none" xmlns="http://www.w3.org/2000/svg">
<rect width="46" height="46" rx="16" fill="#465EBD"/>
<path d="M11 23C11 24.5759 11.3104 26.1363 11.9134 27.5922C12.5165 29.0481 13.4004 30.371 14.5147 31.4853C15.629 32.5996 16.9519 33.4835 18.4078 34.0866C19.8637 34.6896 21.4241 35 23 35C24.5759 35 26.1363 34.6896 27.5922 34.0866C29.0481 33.4835 30.371 32.5996 31.4853 31.4853C32.5996 30.371 33.4835 29.0481 34.0866 27.5922C34.6896 26.1363 35 24.5759 35 23C35 21.4241 34.6896 19.8637 34.0866 18.4078C33.4835 16.9519 32.5996 15.629 31.4853 14.5147C30.371 13.4004 29.0481 12.5165 27.5922 11.9134C26.1363 11.3104 24.5759 11 23 11C21.4241 11 19.8637 11.3104 18.4078 11.9134C16.9519 12.5165 15.629 13.4004 14.5147 14.5147C13.4004 15.629 12.5165 16.9519 11.9134 18.4078C11.3104 19.8637 11 21.4241 11 23Z" stroke="white" stroke-width="2.66667" stroke-linecap="round" stroke-linejoin="round"/>
<path d="M20.333 19.0013C20.333 18.6477 20.4735 18.3085 20.7235 18.0585C20.9736 17.8084 21.3127 17.668 21.6663 17.668H24.333C24.6866 17.668 25.0258 17.8084 25.2758 18.0585C25.5259 18.3085 25.6663 18.6477 25.6663 19.0013V21.668C25.6663 22.0216 25.5259 22.3607 25.2758 22.6108C25.0258 22.8608 24.6866 23.0013 24.333 23.0013M24.333 23.0013H21.6663M24.333 23.0013C24.6866 23.0013 25.0258 23.1418 25.2758 23.3918C25.5259 23.6419 25.6663 23.981 25.6663 24.3346V27.0013C25.6663 27.3549 25.5259 27.6941 25.2758 27.9441C25.0258 28.1942 24.6866 28.3346 24.333 28.3346H21.6663C21.3127 28.3346 20.9736 28.1942 20.7235 27.9441C20.4735 27.6941 20.333 27.3549 20.333 27.0013" stroke="white" stroke-width="2.66667" stroke-linecap="round" stroke-linejoin="round"/>
</svg>
