<svg width="144" height="36" viewBox="0 0 144 36" fill="none" xmlns="http://www.w3.org/2000/svg">
<rect x="0.5" y="0.193359" width="142.567" height="35" rx="16" fill="#79B0F8"/>
<path d="M21.7567 8.80931C22.1004 7.98804 23.4129 7.98804 23.7567 8.80931L25.7567 12.8093C25.9017 13.1555 26.3805 13.7793 26.7567 13.8093H31.7567C32.6489 13.8804 33.4364 15.2307 32.7567 15.8093L28.7567 19.8093C28.4701 20.0533 27.6691 20.4446 27.7567 20.8093L29.7567 25.8093C29.9643 26.6745 28.5205 27.2729 27.7567 26.8093L23.7567 23.8093C23.4346 23.6138 22.0787 23.6138 21.7567 23.8093L17.7567 26.8093C16.9928 27.2729 15.549 26.6745 15.7567 25.8093L17.7567 20.8093C17.8442 20.4446 17.0432 20.0533 16.7567 19.8093L12.7567 15.8093C12.0769 15.2307 12.8644 13.8804 13.7567 13.8093H18.7567C19.1328 13.7793 19.6117 13.1555 19.7567 12.8093L21.7567 8.80931Z" fill="#FFF186"/>
<path d="M46.27 8.80931C46.6137 7.98804 47.9262 7.98804 48.27 8.80931L50.27 12.8093C50.415 13.1555 50.8939 13.7793 51.27 13.8093H56.27C57.1622 13.8804 57.9497 15.2307 57.27 15.8093L53.27 19.8093C52.9834 20.0533 52.1824 20.4446 52.27 20.8093L54.27 25.8093C54.4776 26.6745 53.0339 27.2729 52.27 26.8093L48.27 23.8093C47.9479 23.6138 46.592 23.6138 46.27 23.8093L42.27 26.8093C41.5061 27.2729 40.0623 26.6745 40.27 25.8093L42.27 20.8093C42.3575 20.4446 41.5565 20.0533 41.27 19.8093L37.27 15.8093C36.5902 15.2307 37.3777 13.8804 38.27 13.8093H43.27C43.6461 13.7793 44.1251 13.1555 44.27 12.8093L46.27 8.80931Z" fill="#FFF186"/>
<path d="M70.7833 8.80931C71.127 7.98804 72.4395 7.98804 72.7833 8.80931L74.7833 12.8093C74.9283 13.1555 75.4072 13.7793 75.7833 13.8093H80.7833C81.6755 13.8804 82.463 15.2307 81.7833 15.8093L77.7833 19.8093C77.4967 20.0533 76.6957 20.4446 76.7833 20.8093L78.7833 25.8093C78.9909 26.6745 77.5472 27.2729 76.7833 26.8093L72.7833 23.8093C72.4612 23.6138 71.1053 23.6138 70.7833 23.8093L66.7833 26.8093C66.0194 27.2729 64.5756 26.6745 64.7833 25.8093L66.7833 20.8093C66.8708 20.4446 66.0698 20.0533 65.7833 19.8093L61.7833 15.8093C61.1035 15.2307 61.891 13.8804 62.7833 13.8093H67.7833C68.1594 13.7793 68.6384 13.1555 68.7833 12.8093L70.7833 8.80931Z" fill="#FFF186"/>
<path d="M95.2966 8.80931C95.6403 7.98804 96.9528 7.98804 97.2966 8.80931L99.2966 12.8093C99.4416 13.1555 99.9205 13.7793 100.297 13.8093H105.297C106.189 13.8804 106.976 15.2307 106.297 15.8093L102.297 19.8093C102.01 20.0533 101.209 20.4446 101.297 20.8093L103.297 25.8093C103.504 26.6745 102.06 27.2729 101.297 26.8093L97.2966 23.8093C96.9745 23.6138 95.6186 23.6138 95.2966 23.8093L91.2966 26.8093C90.5327 27.2729 89.0889 26.6745 89.2966 25.8093L91.2966 20.8093C91.3841 20.4446 90.5831 20.0533 90.2966 19.8093L86.2966 15.8093C85.6168 15.2307 86.4043 13.8804 87.2966 13.8093H92.2966C92.6727 13.7793 93.1517 13.1555 93.2966 12.8093L95.2966 8.80931Z" fill="#FFF186"/>
<path d="M119.81 8.80931C120.154 7.98804 121.466 7.98804 121.81 8.80931L123.81 12.8093C123.955 13.1555 124.434 13.7793 124.81 13.8093H129.81C130.702 13.8804 131.49 15.2307 130.81 15.8093L126.81 19.8093C126.523 20.0533 125.722 20.4446 125.81 20.8093L127.81 25.8093C128.018 26.6745 126.574 27.2729 125.81 26.8093L121.81 23.8093C121.488 23.6138 120.132 23.6138 119.81 23.8093L115.81 26.8093C115.046 27.2729 113.602 26.6745 113.81 25.8093L115.81 20.8093C115.897 20.4446 115.096 20.0533 114.81 19.8093L110.81 15.8093C110.13 15.2307 110.918 13.8804 111.81 13.8093H116.81C117.186 13.7793 117.665 13.1555 117.81 12.8093L119.81 8.80931Z" fill="#FFF186"/>
</svg>
