<svg width="46" height="46" viewBox="0 0 46 46" fill="none" xmlns="http://www.w3.org/2000/svg">
<rect width="46" height="46" rx="16" fill="#465EBD"/>
<path d="M12 16.4444C12 15.7961 12.2575 15.1744 12.716 14.716C13.1744 14.2575 13.7961 14 14.4444 14H31.5556C32.2039 14 32.8256 14.2575 33.284 14.716C33.7425 15.1744 34 15.7961 34 16.4444V28.6667C34 29.315 33.7425 29.9367 33.284 30.3952C32.8256 30.8536 32.2039 31.1111 31.5556 31.1111H14.4444C13.7961 31.1111 13.1744 30.8536 12.716 30.3952C12.2575 29.9367 12 29.315 12 28.6667V16.4444Z" stroke="white" stroke-width="2.66667" stroke-linecap="round" stroke-linejoin="round"/>
<path d="M12 16.4453L23 23.7786L34 16.4453" stroke="white" stroke-width="2.66667" stroke-linecap="round" stroke-linejoin="round"/>
</svg>
