<svg width="46" height="46" viewBox="0 0 46 46" fill="none" xmlns="http://www.w3.org/2000/svg">
<rect width="46" height="46" rx="16" fill="#465EBD"/>
<path d="M26.6667 16.8889C27.315 16.8889 27.9367 17.1464 28.3951 17.6048C28.8536 18.0633 29.1111 18.685 29.1111 19.3333M26.6667 12C28.6116 12 30.4769 12.7726 31.8521 14.1479C33.2274 15.5232 34 17.3884 34 19.3333M14.4444 13.2222H19.3333L21.7778 19.3333L18.7222 21.1667C20.0312 23.8208 22.1792 25.9688 24.8333 27.2778L26.6667 24.2222L32.7778 26.6667V31.5556C32.7778 32.2039 32.5202 32.8256 32.0618 33.284C31.6034 33.7425 30.9816 34 30.3333 34C25.5658 33.7103 21.0691 31.6857 17.6917 28.3083C14.3143 24.9309 12.2897 20.4342 12 15.6667C12 15.0184 12.2575 14.3966 12.716 13.9382C13.1744 13.4798 13.7961 13.2222 14.4444 13.2222Z" stroke="white" stroke-width="2.66667" stroke-linecap="round" stroke-linejoin="round"/>
</svg>
