<svg width="46" height="46" viewBox="0 0 46 46" fill="none" xmlns="http://www.w3.org/2000/svg">
<rect width="46" height="46" rx="16" fill="#465EBD"/>
<path d="M18.668 21.666C18.668 22.7269 19.0894 23.7443 19.8395 24.4944C20.5897 25.2446 21.6071 25.666 22.668 25.666C23.7288 25.666 24.7463 25.2446 25.4964 24.4944C26.2465 23.7443 26.668 22.7269 26.668 21.666C26.668 20.6051 26.2465 19.5877 25.4964 18.8376C24.7463 18.0874 23.7288 17.666 22.668 17.666C21.6071 17.666 20.5897 18.0874 19.8395 18.8376C19.0894 19.5877 18.668 20.6051 18.668 21.666Z" stroke="white" stroke-width="2.66667" stroke-linecap="round" stroke-linejoin="round"/>
<path d="M30.2093 29.2089L24.552 34.8663C24.052 35.3658 23.3741 35.6464 22.6673 35.6464C21.9606 35.6464 21.2827 35.3658 20.7827 34.8663L15.124 29.2089C13.6323 27.7172 12.6165 25.8165 12.2049 23.7474C11.7934 21.6783 12.0047 19.5336 12.812 17.5846C13.6194 15.6355 14.9865 13.9697 16.7406 12.7976C18.4948 11.6256 20.557 11 22.6667 11C24.7763 11 26.8386 11.6256 28.5927 12.7976C30.3468 13.9697 31.714 15.6355 32.5213 17.5846C33.3287 19.5336 33.54 21.6783 33.1284 23.7474C32.7169 25.8165 31.701 27.7172 30.2093 29.2089Z" stroke="white" stroke-width="2.66667" stroke-linecap="round" stroke-linejoin="round"/>
</svg>
