<svg width="321" height="321" viewBox="0 0 321 321" fill="none" xmlns="http://www.w3.org/2000/svg">
<path d="M157.734 68.5868C158.405 67.741 159.075 67.2608 160.048 66.7956C163.167 66.5122 163.941 68.5918 163.861 71.309L177.363 71.2996C191.494 71.2614 194.409 72.1228 194.512 88.1684C194.595 101.007 194.253 98.9169 182.385 98.9163L163.861 98.9056C163.71 104.203 163.858 109.546 163.861 114.848C166.226 116.166 168.481 117.883 170.723 119.41L209.327 145.841C211.053 147.025 225.577 154.925 217.278 157.374C214.998 158.047 211.962 155.095 210.015 153.976V163.797L233.27 163.793C237.042 163.78 239.4 162.704 242.392 165.521C245.934 168.857 249.245 172.462 252.732 175.862C254.682 177.763 268.228 187.934 260.419 189.751C258.92 190.1 257.499 188.867 256.297 188.112V247.952C258.989 247.949 268.055 247.359 269.633 248.695C272.151 250.826 269.845 253.816 267.24 254.13C265.013 254.398 262.497 254.157 260.238 254.157L194.522 254.16L66.0165 254.154C62.9852 254.145 53.2936 254.86 51.5214 253.391C49.2325 251.493 50.647 248.571 53.1904 248.07C55.564 247.604 61.9483 247.94 64.7256 247.952V188.112C61.3963 191.461 57.9906 188.95 58.5702 186.334C58.9706 184.526 78.839 165.04 81.0552 163.797C91.0658 163.662 101.096 163.797 111.109 163.797V153.976C109.511 154.93 106.913 157.319 104.987 156.942C103.096 156.573 101.916 154.146 102.653 152.393C103.234 151.012 127.354 135.313 130.608 133.062L149.055 120.335C151.484 118.683 155.1 115.746 157.734 114.848L157.735 83.6819C157.735 78.8488 157.46 73.336 157.734 68.5868ZM163.861 77.4883V92.754H188.372C189.111 90.5991 189.533 79.2488 185.315 77.7372C183.56 77.1083 166.869 77.4895 163.861 77.4883ZM160.471 120.031L130.275 140.837C125.981 143.788 121.63 146.639 117.38 149.656V247.952H140.944L140.937 225.526C140.934 213.881 138.151 212.401 150.405 212.448L161.714 212.466L171.952 212.448C182.844 212.427 180.148 214.777 180.146 224.849C180.144 232.541 180.015 240.262 180.154 247.952L195.882 247.96C198.5 247.961 201.174 248.08 203.786 247.952V149.656C190.1 139.936 174.624 128.918 160.471 120.031ZM210.015 170.076L210.021 238.978C210.025 241.953 210.149 244.981 210.015 247.952H250.058V182.325C247.133 178.763 241.3 173.025 237.785 170.076C234.977 169.639 228.42 170.077 225.209 170.076L214.593 170.068C213.147 170.065 211.43 169.854 210.015 170.076ZM82.9223 170.076C79.0791 174.317 74.649 178.007 70.9042 182.325V247.952H99.1372H111.109V170.076L92.4144 170.08C89.2658 170.082 86.064 170.203 82.9223 170.076ZM147.601 218.714L147.237 218.838C146.783 220.135 147.067 244.395 147.067 247.952H174.004C174.171 247.604 174.004 221.838 174.004 218.714H147.601Z" fill="#465EBD"/>
<path d="M161.519 167.105C161.287 167.12 161.054 167.13 160.821 167.134C160.589 167.138 160.356 167.137 160.124 167.13C159.891 167.123 159.658 167.11 159.427 167.091C159.195 167.072 158.963 167.048 158.732 167.018C158.501 166.987 158.271 166.952 158.042 166.91C157.813 166.869 157.585 166.822 157.358 166.769C157.132 166.717 156.906 166.658 156.682 166.595C156.458 166.531 156.236 166.462 156.016 166.387C155.795 166.313 155.577 166.233 155.36 166.147C155.144 166.062 154.929 165.971 154.717 165.875C154.505 165.779 154.295 165.678 154.088 165.572C153.881 165.466 153.677 165.354 153.475 165.238C153.273 165.122 153.075 165.001 152.879 164.875C152.683 164.748 152.491 164.618 152.302 164.482C152.112 164.346 151.926 164.206 151.744 164.061C151.562 163.917 151.383 163.768 151.208 163.614C151.033 163.461 150.862 163.303 150.695 163.141C150.527 162.979 150.364 162.813 150.205 162.643C150.046 162.473 149.891 162.299 149.741 162.122C149.59 161.944 149.444 161.763 149.302 161.578C149.161 161.393 149.024 161.205 148.892 161.014C148.759 160.822 148.632 160.628 148.509 160.43C148.386 160.232 148.268 160.031 148.155 159.828C148.042 159.624 147.934 159.418 147.832 159.209C147.729 159 147.631 158.789 147.539 158.575C147.447 158.361 147.36 158.146 147.278 157.927C147.197 157.71 147.12 157.49 147.049 157.268C146.978 157.046 146.913 156.823 146.853 156.598C146.793 156.373 146.739 156.147 146.69 155.919C146.641 155.691 146.598 155.463 146.56 155.233C146.523 155.003 146.491 154.773 146.465 154.541C146.439 154.31 146.418 154.078 146.403 153.846C146.389 153.613 146.38 153.381 146.376 153.148C146.373 152.915 146.375 152.683 146.383 152.45C146.392 152.217 146.406 151.985 146.425 151.753C146.445 151.521 146.47 151.29 146.501 151.059C146.532 150.828 146.569 150.598 146.611 150.369C146.653 150.14 146.701 149.913 146.755 149.686C146.808 149.459 146.867 149.234 146.931 149.011C146.996 148.787 147.066 148.565 147.141 148.345C147.217 148.125 147.298 147.907 147.384 147.69C147.47 147.474 147.562 147.26 147.659 147.048C147.755 146.837 147.857 146.627 147.964 146.421C148.071 146.214 148.183 146.01 148.301 145.808C148.418 145.607 148.539 145.409 148.666 145.214C148.793 145.019 148.925 144.827 149.061 144.638C149.197 144.449 149.338 144.264 149.484 144.082C149.629 143.9 149.779 143.722 149.933 143.548C150.087 143.373 150.245 143.203 150.408 143.036C150.57 142.87 150.737 142.707 150.907 142.549C151.078 142.39 151.253 142.236 151.431 142.086C151.609 141.936 151.791 141.791 151.976 141.65C152.161 141.509 152.35 141.373 152.542 141.241C152.734 141.109 152.929 140.982 153.128 140.86C153.326 140.738 153.527 140.621 153.731 140.509C153.935 140.397 154.141 140.29 154.351 140.188C154.56 140.086 154.772 139.99 154.986 139.898C155.2 139.806 155.416 139.72 155.634 139.639C155.853 139.558 156.073 139.483 156.295 139.413C156.517 139.343 156.74 139.278 156.966 139.219C157.191 139.16 157.417 139.107 157.645 139.059C157.873 139.011 158.102 138.969 158.332 138.932C158.562 138.895 158.792 138.864 159.023 138.839C159.255 138.814 159.487 138.794 159.719 138.78C159.95 138.766 160.182 138.758 160.414 138.756C160.646 138.753 160.877 138.756 161.109 138.765C161.34 138.774 161.571 138.789 161.802 138.809C162.033 138.829 162.263 138.855 162.492 138.886C162.722 138.918 162.95 138.955 163.178 138.998C163.406 139.04 163.633 139.088 163.858 139.142C164.083 139.196 164.307 139.255 164.53 139.32C164.752 139.385 164.973 139.455 165.192 139.53C165.411 139.606 165.628 139.687 165.843 139.773C166.058 139.859 166.271 139.95 166.482 140.047C166.692 140.144 166.9 140.245 167.106 140.352C167.312 140.459 167.514 140.571 167.714 140.687C167.914 140.804 168.112 140.925 168.306 141.052C168.5 141.178 168.691 141.309 168.879 141.445C169.067 141.581 169.251 141.721 169.432 141.866C169.613 142.011 169.79 142.16 169.964 142.313C170.137 142.466 170.307 142.624 170.473 142.786C170.639 142.948 170.8 143.113 170.958 143.283C171.116 143.453 171.27 143.626 171.419 143.803C171.568 143.981 171.713 144.161 171.853 144.346C171.994 144.53 172.13 144.717 172.261 144.908C172.392 145.099 172.519 145.293 172.64 145.49C172.762 145.688 172.879 145.888 172.991 146.09C173.103 146.293 173.21 146.499 173.312 146.707C173.413 146.915 173.51 147.125 173.601 147.338C173.693 147.551 173.779 147.766 173.86 147.983C173.941 148.2 174.017 148.419 174.087 148.64C174.157 148.86 174.222 149.083 174.282 149.307C174.342 149.531 174.395 149.756 174.444 149.983C174.492 150.209 174.535 150.437 174.572 150.665C174.609 150.894 174.641 151.123 174.667 151.354C174.693 151.584 174.713 151.815 174.728 152.046C174.743 152.277 174.752 152.508 174.755 152.74C174.758 152.972 174.756 153.204 174.748 153.435C174.74 153.667 174.726 153.898 174.707 154.129C174.688 154.359 174.663 154.59 174.632 154.82C174.601 155.049 174.565 155.278 174.524 155.506C174.482 155.734 174.435 155.96 174.382 156.186C174.329 156.411 174.27 156.636 174.206 156.858C174.142 157.081 174.073 157.302 173.999 157.521C173.924 157.74 173.844 157.958 173.759 158.173C173.673 158.389 173.583 158.602 173.487 158.813C173.391 159.024 173.29 159.232 173.184 159.438C173.078 159.644 172.967 159.848 172.851 160.048C172.735 160.249 172.614 160.446 172.489 160.641C172.363 160.836 172.233 161.027 172.098 161.216C171.963 161.404 171.823 161.589 171.679 161.77C171.535 161.951 171.387 162.129 171.234 162.303C171.081 162.478 170.924 162.648 170.763 162.814C170.602 162.981 170.437 163.143 170.268 163.302C170.099 163.46 169.926 163.614 169.749 163.764C169.572 163.914 169.392 164.06 169.209 164.201C169.025 164.342 168.838 164.479 168.648 164.611C168.457 164.742 168.263 164.869 168.067 164.992C167.87 165.114 167.671 165.232 167.468 165.345C167.266 165.458 167.061 165.565 166.853 165.668C166.645 165.771 166.435 165.868 166.223 165.96C166.01 166.053 165.796 166.14 165.579 166.222C165.362 166.303 165.144 166.38 164.923 166.451C164.702 166.522 164.48 166.588 164.257 166.648C164.033 166.708 163.808 166.763 163.581 166.813C163.355 166.862 163.128 166.906 162.899 166.944C162.671 166.982 162.441 167.014 162.211 167.041C161.981 167.068 161.75 167.089 161.519 167.105ZM159.245 145.115C159.118 145.136 158.992 145.16 158.866 145.188C158.74 145.215 158.615 145.245 158.49 145.279C158.366 145.312 158.243 145.348 158.12 145.388C157.997 145.427 157.876 145.469 157.756 145.515C157.635 145.56 157.515 145.608 157.397 145.659C157.279 145.711 157.162 145.765 157.047 145.821C156.931 145.878 156.817 145.938 156.704 146C156.592 146.062 156.481 146.128 156.371 146.196C156.262 146.263 156.154 146.334 156.048 146.407C155.942 146.48 155.838 146.556 155.736 146.634C155.633 146.712 155.533 146.793 155.435 146.876C155.336 146.959 155.24 147.044 155.146 147.132C155.051 147.22 154.959 147.31 154.869 147.402C154.779 147.494 154.692 147.589 154.607 147.685C154.521 147.782 154.438 147.88 154.358 147.981C154.278 148.081 154.2 148.184 154.124 148.289C154.049 148.393 153.976 148.499 153.906 148.606C153.836 148.715 153.768 148.824 153.703 148.936C153.638 149.047 153.576 149.159 153.517 149.273C153.458 149.388 153.401 149.504 153.347 149.621C153.293 149.737 153.242 149.856 153.195 149.975C153.147 150.095 153.101 150.215 153.059 150.337C153.017 150.459 152.978 150.582 152.942 150.705C152.906 150.829 152.872 150.953 152.842 151.078C152.812 151.203 152.785 151.329 152.761 151.456C152.738 151.583 152.717 151.71 152.699 151.837C152.681 151.965 152.667 152.092 152.655 152.221C152.644 152.349 152.635 152.478 152.63 152.606C152.625 152.735 152.623 152.863 152.624 152.993C152.625 153.121 152.629 153.25 152.637 153.378C152.644 153.507 152.654 153.635 152.668 153.763C152.682 153.891 152.698 154.019 152.718 154.146C152.738 154.273 152.761 154.4 152.787 154.526C152.813 154.652 152.842 154.778 152.874 154.902C152.906 155.027 152.942 155.151 152.98 155.274C153.018 155.397 153.059 155.519 153.103 155.64C153.147 155.761 153.194 155.881 153.244 155.999C153.294 156.118 153.347 156.236 153.403 156.352C153.458 156.468 153.517 156.583 153.578 156.696C153.639 156.809 153.703 156.921 153.77 157.031C153.837 157.141 153.906 157.25 153.978 157.356C154.05 157.463 154.125 157.568 154.201 157.671C154.279 157.774 154.358 157.875 154.44 157.974C154.523 158.074 154.607 158.171 154.694 158.266C154.781 158.361 154.87 158.454 154.961 158.545C155.052 158.636 155.146 158.724 155.242 158.81C155.337 158.897 155.435 158.98 155.535 159.061C155.634 159.143 155.736 159.222 155.84 159.298C155.943 159.375 156.049 159.449 156.156 159.52C156.263 159.592 156.372 159.661 156.483 159.727C156.593 159.792 156.705 159.855 156.819 159.916C156.933 159.977 157.048 160.035 157.164 160.09C157.281 160.144 157.398 160.196 157.517 160.246C157.637 160.295 157.757 160.341 157.878 160.384C157.999 160.428 158.121 160.468 158.245 160.505C158.368 160.543 158.492 160.577 158.617 160.609C158.742 160.64 158.868 160.668 158.994 160.693C159.12 160.719 159.247 160.741 159.374 160.76C159.502 160.779 159.629 160.795 159.758 160.808C159.886 160.82 160.014 160.83 160.142 160.836C160.271 160.843 160.4 160.846 160.529 160.846C160.657 160.846 160.786 160.843 160.915 160.838C161.044 160.831 161.172 160.822 161.3 160.81C161.428 160.798 161.556 160.782 161.684 160.764C161.813 160.745 161.941 160.723 162.069 160.698C162.197 160.673 162.324 160.645 162.451 160.613C162.578 160.581 162.703 160.547 162.828 160.509C162.953 160.472 163.077 160.431 163.2 160.387C163.322 160.344 163.444 160.297 163.565 160.247C163.685 160.197 163.805 160.145 163.923 160.089C164.041 160.033 164.157 159.974 164.272 159.913C164.387 159.851 164.501 159.787 164.613 159.72C164.725 159.654 164.835 159.584 164.943 159.511C165.052 159.439 165.158 159.364 165.263 159.286C165.368 159.208 165.471 159.128 165.571 159.045C165.672 158.962 165.771 158.877 165.867 158.789C165.964 158.702 166.058 158.612 166.15 158.519C166.242 158.427 166.332 158.332 166.42 158.236C166.507 158.139 166.592 158.04 166.674 157.939C166.757 157.838 166.837 157.735 166.914 157.63C166.992 157.525 167.067 157.418 167.139 157.31C167.211 157.201 167.281 157.091 167.347 156.979C167.414 156.867 167.478 156.753 167.539 156.638C167.6 156.522 167.658 156.406 167.714 156.288C167.769 156.17 167.821 156.05 167.871 155.929C167.92 155.808 167.967 155.687 168.01 155.564C168.054 155.441 168.094 155.317 168.131 155.192C168.168 155.067 168.203 154.941 168.234 154.815C168.265 154.688 168.293 154.56 168.317 154.432C168.342 154.304 168.364 154.176 168.383 154.046C168.401 153.917 168.416 153.788 168.428 153.658C168.44 153.528 168.449 153.398 168.455 153.268C168.46 153.137 168.462 153.007 168.462 152.877C168.461 152.746 168.457 152.616 168.45 152.486C168.443 152.356 168.432 152.226 168.418 152.096C168.404 151.966 168.388 151.837 168.368 151.708C168.347 151.579 168.324 151.451 168.298 151.323C168.272 151.195 168.242 151.068 168.209 150.942C168.176 150.816 168.141 150.69 168.102 150.566C168.063 150.442 168.021 150.318 167.976 150.196C167.931 150.073 167.883 149.952 167.832 149.832C167.781 149.712 167.727 149.593 167.67 149.475C167.613 149.358 167.554 149.243 167.491 149.128C167.428 149.014 167.363 148.901 167.295 148.789C167.227 148.678 167.156 148.569 167.082 148.461C167.009 148.353 166.933 148.247 166.854 148.144C166.775 148.04 166.694 147.938 166.61 147.838C166.526 147.738 166.44 147.64 166.351 147.544C166.263 147.449 166.172 147.355 166.078 147.264C165.985 147.173 165.89 147.084 165.792 146.998C165.695 146.911 165.595 146.827 165.493 146.746C165.391 146.664 165.287 146.585 165.181 146.509C165.076 146.432 164.969 146.358 164.859 146.287C164.75 146.216 164.639 146.148 164.526 146.082C164.413 146.017 164.299 145.954 164.183 145.894C164.067 145.834 163.95 145.777 163.831 145.723C163.713 145.669 163.593 145.618 163.472 145.569C163.35 145.521 163.228 145.476 163.105 145.433C162.981 145.391 162.857 145.352 162.731 145.316C162.606 145.28 162.48 145.247 162.353 145.218C162.226 145.188 162.098 145.161 161.97 145.137C161.842 145.114 161.713 145.094 161.584 145.077C161.454 145.06 161.325 145.046 161.195 145.035C161.065 145.024 160.935 145.016 160.805 145.012C160.674 145.008 160.544 145.007 160.413 145.009C160.283 145.011 160.153 145.016 160.022 145.025C159.892 145.034 159.762 145.045 159.633 145.06C159.503 145.075 159.374 145.094 159.245 145.115Z" fill="#465EBD"/>
<path d="M152.025 203.908L142.063 203.923C139.261 203.925 134.12 204.888 133.661 200.98C133.197 197.036 133.191 186.756 133.565 182.705C133.8 180.174 134.567 179.552 137.102 179.303C139.684 179.299 152.452 178.881 153.898 179.841C156.286 181.427 155.205 189.003 155.205 191.542C155.205 195.722 157.02 203.108 152.025 203.908ZM139.65 185.401V197.702H149.024V185.401C145.901 185.399 142.773 185.364 139.65 185.401Z" fill="#465EBD"/>
<path d="M184.99 203.908L174.566 203.927C172.056 203.93 166.464 204.834 165.877 201.388C165.374 198.438 165.589 185.95 165.845 182.843C166.056 180.268 166.618 179.606 169.201 179.303L179.305 179.289C181.518 179.287 187.041 178.502 187.585 181.582C188.148 184.776 187.995 197.454 187.679 200.911C187.523 202.624 186.821 203.67 184.99 203.908ZM172.061 185.401V197.702H181.558V185.401H172.061Z" fill="#465EBD"/>
<path d="M99.137 225.284C96.5896 225.289 82.9678 225.681 81.5691 224.95C78.7566 223.479 79.9284 217.349 79.9284 214.619C79.9277 209.2 77.4187 200.374 83.5484 200.116C85.3791 199.724 100.982 199.968 101.451 200.426C102.656 201.604 102.408 219.318 102.115 222.421C101.924 224.434 101.218 225.162 99.137 225.284ZM86.1678 206.424V218.714H96.1056V206.424C92.816 206.241 89.4656 206.44 86.1678 206.424Z" fill="#465EBD"/>
<path d="M239.117 225.284C235.907 225.664 223.874 225.548 221.173 225.174C217.465 224.659 218.945 214.367 218.943 211.298C218.942 208.143 217.693 201.981 220.795 200.116C226.146 200.072 231.533 200 236.883 200.118C240.005 200.186 240.785 200.811 241.022 203.819C241.295 207.297 241.103 210.929 241.106 214.421C241.109 217.807 242.417 223.208 239.117 225.284ZM225.179 206.424V218.714H234.902V206.424H225.179Z" fill="#465EBD"/>
</svg>
