<svg width="46" height="47" viewBox="0 0 46 47" fill="none" xmlns="http://www.w3.org/2000/svg">
<rect y="0.193481" width="46" height="46" rx="16" fill="#465EBD"/>
<path d="M12 34.1935V31.6379C12 30.2824 12.5385 28.9823 13.497 28.0238C14.4555 27.0653 15.7556 26.5268 17.1111 26.5268H22.2222C23.5778 26.5268 24.8778 27.0653 25.8363 28.0238C26.7948 28.9823 27.3333 30.2824 27.3333 31.6379V34.1935M28.6111 11.3596C29.7105 11.6411 30.685 12.2805 31.3809 13.177C32.0768 14.0735 32.4545 15.1761 32.4545 16.311C32.4545 17.4459 32.0768 18.5485 31.3809 19.445C30.685 20.3415 29.7105 20.9809 28.6111 21.2624M35 34.1935V31.6379C34.9935 30.5099 34.614 29.4156 33.9206 28.5258C33.2272 27.6359 32.2589 27.0005 31.1667 26.7185M14.5556 16.3046C14.5556 17.6601 15.094 18.9602 16.0526 19.9187C17.0111 20.8772 18.3111 21.4157 19.6667 21.4157C21.0222 21.4157 22.3222 20.8772 23.2808 19.9187C24.2393 18.9602 24.7778 17.6601 24.7778 16.3046C24.7778 14.949 24.2393 13.649 23.2808 12.6905C22.3222 11.732 21.0222 11.1935 19.6667 11.1935C18.3111 11.1935 17.0111 11.732 16.0526 12.6905C15.094 13.649 14.5556 14.949 14.5556 16.3046Z" stroke="white" stroke-width="2.66667" stroke-linecap="round" stroke-linejoin="round"/>
</svg>
