<svg width="46" height="47" viewBox="0 0 46 47" fill="none" xmlns="http://www.w3.org/2000/svg">
<rect y="0.193481" width="46" height="46" rx="16" fill="#465EBD"/>
<path d="M17.3333 20.5268V31.1935C17.3333 31.5471 17.1929 31.8862 16.9428 32.1363C16.6928 32.3863 16.3536 32.5268 16 32.5268H13.3333C12.9797 32.5268 12.6406 32.3863 12.3905 32.1363C12.1405 31.8862 12 31.5471 12 31.1935V21.8601C12 21.5065 12.1405 21.1674 12.3905 20.9173C12.6406 20.6673 12.9797 20.5268 13.3333 20.5268H17.3333ZM17.3333 20.5268C18.7478 20.5268 20.1044 19.9649 21.1046 18.9647C22.1048 17.9645 22.6667 16.608 22.6667 15.1935V13.8601C22.6667 13.1529 22.9476 12.4746 23.4477 11.9745C23.9478 11.4744 24.6261 11.1935 25.3333 11.1935C26.0406 11.1935 26.7189 11.4744 27.219 11.9745C27.719 12.4746 28 13.1529 28 13.8601V20.5268H32C32.7072 20.5268 33.3855 20.8078 33.8856 21.3079C34.3857 21.808 34.6667 22.4862 34.6667 23.1935L33.3333 29.8601C33.1416 30.6781 32.7778 31.3805 32.2969 31.8614C31.8159 32.3424 31.2438 32.5759 30.6667 32.5268H21.3333C20.2725 32.5268 19.2551 32.1054 18.5049 31.3552C17.7548 30.6051 17.3333 29.5877 17.3333 28.5268" stroke="white" stroke-width="2.66667" stroke-linecap="round" stroke-linejoin="round"/>
</svg>
