<svg width="46" height="47" viewBox="0 0 46 47" fill="none" xmlns="http://www.w3.org/2000/svg">
<rect y="0.193481" width="46" height="46" rx="16" fill="#465EBD"/>
<path d="M27.3333 35.1935H15.8333C14.8167 35.1935 13.8416 34.7896 13.1228 34.0707C12.4039 33.3518 12 32.3768 12 31.3601V30.0824H24.7778V32.6379C24.7778 33.3157 25.047 33.9657 25.5263 34.445C26.0055 34.9242 26.6556 35.1935 27.3333 35.1935ZM27.3333 35.1935C28.0111 35.1935 28.6611 34.9242 29.1404 34.445C29.6196 33.9657 29.8889 33.3157 29.8889 32.6379V14.749C29.8889 14.2436 30.0388 13.7495 30.3196 13.3292C30.6004 12.909 30.9995 12.5814 31.4665 12.388C31.9334 12.1946 32.4473 12.144 32.943 12.2426C33.4387 12.3412 33.8941 12.5846 34.2515 12.942C34.6089 13.2994 34.8523 13.7547 34.9509 14.2505C35.0495 14.7462 34.9989 15.26 34.8055 15.727C34.612 16.194 34.2845 16.5931 33.8642 16.8739C33.444 17.1547 32.9499 17.3046 32.4444 17.3046H29.8889M32.4444 12.1935H18.3889C17.3722 12.1935 16.3972 12.5974 15.6783 13.3162C14.9594 14.0351 14.5556 15.0102 14.5556 16.0268V30.0824M19.6667 17.3046H24.7778M19.6667 22.4157H24.7778" stroke="white" stroke-width="2.66667" stroke-linecap="round" stroke-linejoin="round"/>
</svg>
