<svg width="299" height="299" viewBox="0 0 299 299" fill="none" xmlns="http://www.w3.org/2000/svg">
<path d="M201.334 105.881C200.865 104.708 200.811 103.443 200.65 102.203C199.801 95.6943 194.758 89.6851 188.296 88.1405C186.029 87.5986 180.973 87.963 182.441 83.9066C183.489 81.0089 197.702 82.8478 200.309 69.1674C200.796 66.6102 199.987 63.9641 202.659 62.6361C207.203 62.3167 205.993 66.5693 206.733 69.5996C209.998 82.9664 224.002 81.3669 225.439 83.3162C228.49 87.4537 221.894 87.7142 219.981 88.0325C205.725 90.4081 207.762 104.722 205.179 106.6C203.564 107.219 202.655 107.103 201.334 105.881ZM203.686 75.9212C200.858 80.0453 198.816 82.0916 194.678 84.9157C198.444 87.1962 201.185 89.7079 203.477 93.4956L203.686 93.5131C206.158 90.0852 208.807 86.8797 212.642 84.9157C207.669 81.7826 206.688 80.4979 203.686 75.9212Z" fill="#465EBD"/>
<path d="M133.74 111.865C123.848 100.016 131.222 82.6708 146.192 80.9364C155.348 79.9973 164.277 86.6226 166.071 95.6639C167.314 101.929 165.176 107.706 161.708 112.851C166.433 110.274 171.477 107.612 175.602 104.158C179.938 100.527 183.6 94.3224 190.165 96.0359C194.702 97.2196 197.766 102.342 196.604 106.884C194.414 115.44 174.268 128.25 167.259 132.443C168.911 143.81 169.427 155.385 170.721 166.803C175.258 169.339 185.918 182.796 182.31 187.111C179.05 191.011 177.252 185.088 176.646 183.142C173.656 173.517 164.859 167.884 154.868 168.646C138.058 171.054 129.548 188.262 126.358 188.3C118.017 188.399 130.546 176.063 131.832 174.846C131.265 171.554 131.141 168.07 130.794 164.74L128.585 143.231C128.172 139.2 127.891 135.094 127.269 131.091C121.297 127.971 100.553 113.143 98.1438 106.518C96.4689 101.914 98.5555 96.2508 103.349 94.5794C110.454 92.1033 114.163 98.2106 118.932 102.209C123.534 106.068 128.319 109.265 133.74 111.865ZM146.867 86.4025C146.651 86.4188 146.435 86.4406 146.219 86.4679C146.003 86.4951 145.789 86.5274 145.575 86.5648C145.361 86.6026 145.148 86.6456 144.936 86.6939C144.724 86.7421 144.514 86.7955 144.304 86.8539C144.095 86.9123 143.888 86.9759 143.682 87.0448C143.475 87.1137 143.271 87.1875 143.069 87.2662C142.866 87.3448 142.666 87.4285 142.468 87.5173C142.269 87.6061 142.073 87.6997 141.88 87.7982C141.686 87.8963 141.494 87.9993 141.306 88.1071C141.117 88.2149 140.931 88.3273 140.748 88.4441C140.565 88.5609 140.385 88.6821 140.208 88.8079C140.03 88.9336 139.856 89.0637 139.686 89.198C139.515 89.3323 139.348 89.4707 139.184 89.6132C139.02 89.7557 138.859 89.9023 138.703 90.0529C138.546 90.2032 138.393 90.3574 138.244 90.5155C138.095 90.6735 137.949 90.8351 137.808 91.0002C137.667 91.1652 137.53 91.3338 137.397 91.5059C137.264 91.6776 137.136 91.8526 137.011 92.0309C136.887 92.2088 136.767 92.3899 136.652 92.574C136.536 92.7582 136.426 92.945 136.319 93.1346C136.213 93.3242 136.112 93.5164 136.015 93.711C135.919 93.9053 135.827 94.1021 135.74 94.3014C135.653 94.5004 135.571 94.7015 135.493 94.9047C135.416 95.1075 135.344 95.3123 135.277 95.519C135.21 95.7258 135.148 95.9341 135.091 96.1439C135.034 96.3534 134.983 96.5642 134.937 96.7764C134.89 96.9889 134.849 97.2023 134.813 97.4164C134.777 97.6305 134.746 97.8454 134.721 98.0611C134.696 98.2772 134.676 98.4937 134.661 98.7105C134.647 98.927 134.637 99.1438 134.633 99.3611C134.629 99.5783 134.63 99.7956 134.637 100.013C134.644 100.23 134.656 100.447 134.673 100.663C134.691 100.88 134.713 101.096 134.742 101.312C134.769 101.527 134.802 101.741 134.841 101.955C134.88 102.169 134.924 102.382 134.973 102.593C135.021 102.805 135.076 103.016 135.135 103.225C135.195 103.433 135.259 103.641 135.328 103.847C135.398 104.053 135.473 104.257 135.553 104.459C135.632 104.661 135.717 104.861 135.806 105.059C135.896 105.257 135.99 105.452 136.089 105.646C136.188 105.839 136.292 106.03 136.401 106.218C136.509 106.406 136.622 106.592 136.74 106.775C136.857 106.957 136.98 107.137 137.106 107.313C137.233 107.49 137.363 107.663 137.498 107.834C137.633 108.004 137.772 108.171 137.915 108.334C138.059 108.498 138.206 108.657 138.357 108.813C138.508 108.97 138.663 109.122 138.822 109.27C138.98 109.419 139.142 109.563 139.308 109.704C139.474 109.845 139.643 109.981 139.815 110.113C139.988 110.245 140.163 110.373 140.342 110.496C140.521 110.62 140.702 110.739 140.887 110.854C141.071 110.968 141.259 111.078 141.449 111.184C141.639 111.289 141.831 111.39 142.026 111.486C142.221 111.582 142.418 111.673 142.618 111.759C142.817 111.845 143.019 111.926 143.222 112.003C143.425 112.079 143.631 112.15 143.838 112.216C144.044 112.283 144.253 112.344 144.463 112.4C144.673 112.456 144.884 112.507 145.096 112.552C145.309 112.598 145.522 112.638 145.737 112.673C145.951 112.708 146.166 112.737 146.382 112.762C146.598 112.786 146.815 112.805 147.031 112.819C147.248 112.833 147.465 112.842 147.682 112.845C147.899 112.848 148.117 112.845 148.334 112.838C148.551 112.83 148.768 112.817 148.984 112.799C149.2 112.781 149.414 112.757 149.628 112.729C149.843 112.7 150.057 112.666 150.269 112.627C150.482 112.588 150.693 112.544 150.903 112.494C151.114 112.445 151.323 112.39 151.53 112.33C151.738 112.271 151.944 112.206 152.149 112.136C152.353 112.066 152.556 111.991 152.757 111.911C152.958 111.832 153.156 111.748 153.353 111.658C153.55 111.568 153.745 111.474 153.937 111.375C154.129 111.276 154.318 111.172 154.505 111.064C154.693 110.956 154.877 110.843 155.058 110.726C155.24 110.608 155.418 110.487 155.594 110.361C155.769 110.235 155.942 110.104 156.111 109.97C156.28 109.835 156.446 109.697 156.608 109.555C156.771 109.412 156.929 109.265 157.085 109.115C157.24 108.964 157.392 108.81 157.539 108.652C157.687 108.495 157.83 108.333 157.97 108.169C158.11 108.004 158.246 107.835 158.377 107.664C158.509 107.492 158.636 107.318 158.759 107.14C158.882 106.962 159.001 106.782 159.115 106.598C159.229 106.415 159.339 106.228 159.443 106.04C159.549 105.851 159.649 105.659 159.745 105.465C159.84 105.272 159.931 105.076 160.018 104.877C160.104 104.679 160.185 104.479 160.26 104.277C160.337 104.075 160.408 103.871 160.475 103.665C160.541 103.459 160.602 103.252 160.658 103.043C160.714 102.834 160.765 102.625 160.811 102.414C160.857 102.202 160.898 101.99 160.933 101.777C160.969 101.564 160.999 101.35 161.024 101.135C161.049 100.92 161.068 100.705 161.083 100.489C161.097 100.274 161.106 100.058 161.11 99.8417C161.114 99.6256 161.113 99.4095 161.106 99.1935C161.099 98.9774 161.087 98.7617 161.07 98.5464C161.053 98.3311 161.03 98.1162 161.002 97.9017C160.974 97.6876 160.942 97.474 160.903 97.2611C160.865 97.0485 160.821 96.8369 160.773 96.6263C160.724 96.4156 160.67 96.2064 160.611 95.9985C160.553 95.7906 160.489 95.5842 160.42 95.3795C160.351 95.1747 160.277 94.9717 160.198 94.7704C160.119 94.5691 160.035 94.3699 159.947 94.1729C159.858 93.976 159.765 93.7811 159.667 93.5884C159.568 93.3961 159.465 93.2061 159.358 93.0184C159.25 92.8308 159.138 92.646 159.022 92.4642C158.905 92.282 158.784 92.1029 158.659 91.9269C158.533 91.751 158.404 91.5781 158.27 91.4084C158.136 91.2386 157.998 91.0722 157.856 90.9091C157.715 90.7463 157.569 90.5869 157.419 90.4308C157.269 90.2751 157.116 90.123 156.959 89.9747C156.801 89.8264 156.641 89.6819 156.476 89.5414C156.312 89.4012 156.144 89.265 155.973 89.1326C155.803 89.0002 155.629 88.8723 155.451 88.7489C155.274 88.6251 155.094 88.5058 154.911 88.3909C154.728 88.2757 154.542 88.1653 154.353 88.0598C154.165 87.9539 153.974 87.8527 153.781 87.7561C153.588 87.6596 153.392 87.5679 153.194 87.4811C152.996 87.3943 152.796 87.3123 152.595 87.2352C152.392 87.1581 152.189 87.0861 151.983 87.0191C151.778 86.9518 151.571 86.8897 151.362 86.8328C151.154 86.776 150.944 86.7242 150.733 86.6775C150.522 86.6308 150.31 86.5891 150.097 86.5525C149.884 86.5163 149.67 86.4854 149.456 86.4597C149.241 86.4336 149.026 86.413 148.81 86.3978C148.595 86.3822 148.379 86.3721 148.163 86.3674C147.947 86.3627 147.731 86.3633 147.514 86.3692C147.299 86.375 147.083 86.3861 146.867 86.4025ZM106.317 99.5947C94.081 103.006 123.739 122.799 126.567 124.509C134.656 129.399 132.401 126.786 133.534 137.329L134.939 150.572C135.627 157.139 136.578 163.779 136.919 170.365C145.474 164.523 154.474 161.157 164.699 164.143C164.182 155.864 163.203 147.627 162.455 139.368C162.231 136.897 160.753 130.823 162.406 128.905C164.495 127.416 166.851 126.36 169.009 124.981C172.965 122.452 190.511 110.087 191.362 105.265C191.698 103.364 190.222 101.403 188.286 101.215C182.968 100.701 156.779 143.061 113.344 104.714C111.333 102.939 109.177 99.917 106.317 99.5947Z" fill="#465EBD"/>
<path d="M64.4342 137.309C60.9343 137.835 61.1895 134.413 60.8041 131.969C59.3961 123.042 49.8677 126.541 48.3893 123.049C46.5723 118.756 53.5301 119.223 55.6659 118.409C62.5712 115.777 59.0796 108.975 63.0203 107.475C66.5768 107.236 66.2871 110.149 66.8191 112.802C68.5699 121.533 77.4249 117.58 79.0279 120.816C81.1285 125.055 73.6302 124.924 71.5553 125.883C64.9609 128.931 68.5845 135.397 64.4342 137.309ZM63.3882 119.304C62.3949 120.348 61.3139 121.279 60.1991 122.191C61.6801 123.215 63.1365 124.347 64.4342 125.599C64.9784 124.074 65.9356 123.238 67.1059 122.191C66.1295 121.418 64.5638 119.535 63.3882 119.304Z" fill="#465EBD"/>
<path d="M65.6606 169.656C57.8814 161.035 65.1035 143.805 77.7824 143.858C84.827 141.525 93.7205 148.657 95.7913 155.338C97.5 160.85 96.4658 164.745 93.8706 169.656C98.4268 167.679 102.542 164.361 106.292 161.142C110.213 157.777 113.641 153.83 119.279 156.234C123.512 158.04 125.759 163.242 123.719 167.474C120.183 174.809 103.74 187.08 96.5353 189.489C96.78 198.593 98.3205 207.667 98.5962 216.77C103.739 219.955 107.977 226.793 108.855 232.729C109.178 234.913 105.096 239.347 102.78 232.014C100.38 224.415 95.1115 218.668 86.5462 219.175C69.4232 218.578 63.883 238.325 59.2023 235.364C58.2297 234.749 58.0029 234.072 57.7794 233C58.4893 229.732 61.4571 227.15 63.3136 224.491L63.3877 224.383C63.4339 214.17 61.6918 199.858 60.7277 189.489C57.8496 187.436 54.7772 185.742 51.9562 183.582C49.5735 181.758 36.1176 170.161 34.7556 167.678C32.4273 163.433 33.8332 158.021 38.1542 155.73C47.9411 150.541 55.2998 166.568 65.6606 169.656ZM78.774 148.925C78.5871 148.937 78.4008 148.954 78.2151 148.976C78.029 148.997 77.8437 149.023 77.6591 149.053C77.4746 149.084 77.2908 149.119 77.1079 149.158C76.9249 149.197 76.7431 149.241 76.5624 149.289C76.3814 149.338 76.2019 149.39 76.024 149.447C75.8457 149.505 75.6689 149.566 75.4937 149.632C75.3185 149.698 75.1451 149.768 74.9734 149.842C74.8017 149.917 74.632 149.995 74.4642 150.078C74.2964 150.16 74.1305 150.247 73.9666 150.337C73.8031 150.428 73.6419 150.523 73.4831 150.622C73.3238 150.72 73.1673 150.823 73.0135 150.929C72.8594 151.036 72.7081 151.146 72.5598 151.26C72.4111 151.373 72.2653 151.491 72.1224 151.612C71.9799 151.732 71.8401 151.857 71.7031 151.984C71.5664 152.112 71.4331 152.244 71.3031 152.378C71.1726 152.512 71.0457 152.65 70.9223 152.79C70.7985 152.931 70.6784 153.074 70.562 153.221C70.4456 153.367 70.3329 153.516 70.2239 153.668C70.1145 153.82 70.009 153.975 69.9073 154.132C69.8057 154.289 69.708 154.449 69.6142 154.611C69.5207 154.772 69.431 154.937 69.345 155.103C69.2593 155.269 69.1777 155.437 69.1003 155.608C69.0228 155.778 68.9496 155.95 68.8807 156.124C68.8118 156.298 68.7472 156.474 68.6868 156.651C68.6261 156.828 68.57 157.006 68.5186 157.186C68.4668 157.366 68.4195 157.547 68.3767 157.729C68.3339 157.911 68.2957 158.094 68.2623 158.278C68.2284 158.463 68.199 158.647 68.1741 158.833C68.1495 159.018 68.1295 159.204 68.1139 159.391C68.0984 159.577 68.0873 159.764 68.0806 159.951C68.074 160.138 68.0721 160.325 68.0748 160.512C68.0775 160.699 68.0849 160.886 68.097 161.073C68.1091 161.26 68.1256 161.446 68.1466 161.632C68.1677 161.818 68.1931 162.003 68.2231 162.188C68.2531 162.372 68.2878 162.556 68.3271 162.739C68.3664 162.922 68.41 163.104 68.4579 163.285C68.5062 163.466 68.5587 163.645 68.6156 163.823C68.6724 164.002 68.7335 164.178 68.7989 164.354C68.8643 164.529 68.9342 164.703 69.0086 164.875C69.0826 165.046 69.1608 165.216 69.2434 165.384C69.3255 165.552 69.4119 165.718 69.5026 165.882C69.593 166.046 69.6874 166.207 69.7859 166.366C69.8844 166.525 69.9868 166.682 70.093 166.836C70.1989 166.99 70.3087 167.142 70.4224 167.291C70.5361 167.439 70.6533 167.585 70.774 167.728C70.8947 167.871 71.0187 168.011 71.146 168.148C71.2737 168.284 71.4047 168.418 71.539 168.548C71.6729 168.679 71.8102 168.806 71.9507 168.93C72.0909 169.054 72.2341 169.174 72.3805 169.291C72.5269 169.407 72.676 169.521 72.8278 169.63C72.9797 169.739 73.134 169.845 73.2909 169.947C73.4478 170.049 73.6073 170.146 73.7692 170.24C73.9308 170.334 74.0947 170.424 74.2609 170.51C74.4272 170.596 74.5954 170.678 74.7655 170.756C74.936 170.833 75.1081 170.907 75.2817 170.976C75.4558 171.045 75.6312 171.11 75.8079 171.171C75.9851 171.232 76.1636 171.288 76.3434 171.34C76.5229 171.392 76.7038 171.439 76.886 171.482C77.0682 171.525 77.2511 171.564 77.4349 171.598C77.619 171.632 77.8038 171.661 77.9891 171.686C78.1748 171.712 78.3609 171.732 78.5474 171.748C78.7339 171.763 78.9206 171.775 79.1074 171.781C79.2943 171.788 79.4814 171.791 79.6686 171.788C79.8555 171.785 80.0424 171.778 80.2293 171.767C80.4165 171.755 80.6032 171.739 80.7893 171.718C80.9758 171.697 81.1615 171.672 81.3464 171.642C81.5314 171.612 81.7155 171.577 81.8989 171.538C82.0822 171.5 82.2646 171.456 82.4461 171.408C82.6271 171.36 82.807 171.308 82.9857 171.251C83.1644 171.194 83.3415 171.133 83.5171 171.068C83.6927 171.002 83.8665 170.932 84.0386 170.858C84.2111 170.784 84.3814 170.706 84.5496 170.623C84.7182 170.541 84.8844 170.454 85.0483 170.364C85.2126 170.273 85.3744 170.179 85.5336 170.08C85.6932 169.982 85.8503 169.879 86.0049 169.773C86.159 169.667 86.3107 169.557 86.4598 169.443C86.6089 169.329 86.7551 169.212 86.8984 169.091C87.0416 168.97 87.1818 168.846 87.3188 168.718C87.4563 168.59 87.5902 168.459 87.7206 168.325C87.8514 168.19 87.9787 168.053 88.1025 167.912C88.2267 167.772 88.3472 167.628 88.464 167.482C88.5808 167.335 88.6941 167.186 88.8039 167.034C88.9133 166.882 89.019 166.727 89.121 166.57C89.223 166.412 89.3211 166.252 89.4153 166.09C89.5096 165.929 89.5997 165.764 89.6857 165.598C89.7718 165.431 89.8535 165.262 89.931 165.092C90.0089 164.921 90.0824 164.749 90.1517 164.574C90.221 164.4 90.286 164.225 90.3468 164.047C90.4071 163.87 90.4634 163.691 90.5156 163.511C90.5673 163.331 90.6146 163.15 90.6575 162.967C90.7007 162.785 90.7392 162.601 90.7731 162.417C90.807 162.233 90.8364 162.048 90.8613 161.862C90.8862 161.676 90.9064 161.489 90.922 161.303C90.9376 161.116 90.9487 160.929 90.9553 160.742C90.9619 160.554 90.9639 160.367 90.9611 160.179C90.9584 159.992 90.951 159.805 90.9389 159.618C90.9269 159.43 90.9103 159.244 90.8893 159.058C90.8683 158.871 90.8426 158.686 90.8122 158.5C90.7822 158.315 90.7476 158.131 90.7083 157.948C90.6689 157.765 90.6252 157.583 90.5769 157.401C90.5286 157.22 90.476 157.04 90.4192 156.862C90.362 156.683 90.3005 156.506 90.2347 156.331C90.1689 156.155 90.099 155.981 90.025 155.809C89.9507 155.637 89.872 155.467 89.7891 155.298C89.7066 155.13 89.6199 154.964 89.5292 154.8C89.4381 154.636 89.3433 154.475 89.2448 154.316C89.1459 154.156 89.0433 153.999 88.9371 153.845C88.8304 153.691 88.72 153.539 88.6059 153.39C88.4923 153.241 88.3749 153.095 88.2538 152.952C88.1327 152.809 88.0081 152.669 87.88 152.532C87.7519 152.395 87.6207 152.261 87.4864 152.131C87.3517 152 87.2139 151.873 87.073 151.75C86.9324 151.626 86.7888 151.505 86.642 151.389C86.4952 151.272 86.3457 151.159 86.1935 151.05C86.0413 150.941 85.8863 150.835 85.7286 150.733C85.5714 150.631 85.4115 150.533 85.2492 150.44C85.0868 150.346 84.9224 150.256 84.7557 150.17C84.5891 150.084 84.4205 150.003 84.25 149.925C84.0791 149.848 83.9066 149.775 83.7326 149.706C83.5582 149.636 83.3822 149.571 83.2047 149.511C83.0271 149.451 82.8482 149.395 82.668 149.344C82.4877 149.292 82.3065 149.244 82.1243 149.202C81.9417 149.159 81.7581 149.121 81.5736 149.087C81.3891 149.054 81.2039 149.025 81.0182 149C80.8325 148.975 80.6462 148.955 80.4593 148.94C80.2725 148.924 80.0854 148.914 79.8981 148.907C79.7105 148.901 79.523 148.9 79.3358 148.903C79.1485 148.906 78.9612 148.913 78.774 148.925ZM41.8007 160.183C35.6442 162.577 41.1155 166.563 43.4277 168.663C48.0215 172.835 52.3226 177.181 57.4662 180.701C58.8157 181.624 65.2092 185.102 65.5479 185.914C66.5997 188.438 68.4631 215.99 68.6132 219.884C77.1435 213.745 82.5734 212.701 92.9058 214.027C92.4801 206.253 90.7719 195.215 91.0014 187.864C91.0861 185.148 92.9105 184.758 95.2861 184.318L95.4841 184.175C97.7879 182.533 100.511 181.492 102.881 179.92C104.852 178.612 126.401 162.445 116.051 161.171C113.746 160.887 109.297 166.084 107.591 167.49C88.6871 183.071 67.9901 181.724 49.9767 165.798C47.9047 163.967 44.8547 159.968 41.8007 160.183Z" fill="#465EBD"/>
<path d="M204.553 168.645C203.982 166.74 203.307 164.804 203.064 162.825C201.911 153.433 208.904 144.957 218.193 143.858C232.609 142.176 240.84 156.463 234.324 169.656C238.813 167.879 243.352 164.711 247.107 161.699C250.926 158.635 254.226 154.858 259.61 156.798C264.065 158.402 266.237 163.526 264.502 167.896C261.563 175.302 244.392 186.578 237.531 189.489C237.313 198.193 239.939 206.783 239.478 216.77C244.633 219.847 251.323 227.504 250.055 233.809C249.536 236.386 245.415 237.957 244.28 231.873C242.771 223.783 236.566 220.861 229.078 219.175C218.381 220.038 211.826 222.658 204.745 231.605C203.705 232.919 202.563 235.657 200.734 235.899C199.282 236.09 197.883 235.106 197.756 233.623C197.54 231.084 202.038 226.4 203.685 224.383C203.76 212.841 201.33 201.377 201.333 189.489C194.433 183.557 175.741 171.136 175.052 163.003C174.684 158.652 178.453 154.213 182.81 153.91C188.628 153.504 192.291 159.65 196.317 162.856C198.944 164.948 202.018 166.477 204.553 168.645ZM218.58 149.287C218.394 149.309 218.209 149.335 218.025 149.366C217.841 149.397 217.657 149.432 217.475 149.471C217.292 149.512 217.111 149.556 216.93 149.605C216.75 149.653 216.571 149.706 216.393 149.764C216.216 149.822 216.039 149.884 215.865 149.95C215.69 150.016 215.517 150.086 215.345 150.161C215.175 150.235 215.005 150.314 214.838 150.397C214.671 150.48 214.505 150.568 214.342 150.659C214.179 150.75 214.018 150.845 213.86 150.944C213.701 151.043 213.545 151.145 213.392 151.252C213.239 151.359 213.089 151.469 212.941 151.583C212.793 151.697 212.647 151.815 212.505 151.936C212.363 152.058 212.224 152.182 212.088 152.31C211.952 152.438 211.819 152.569 211.69 152.704C211.56 152.839 211.434 152.976 211.311 153.117C211.188 153.258 211.069 153.401 210.953 153.548C210.837 153.695 210.725 153.844 210.617 153.996C210.508 154.148 210.404 154.303 210.303 154.46C210.202 154.618 210.105 154.777 210.012 154.939C209.919 155.101 209.83 155.266 209.745 155.432C209.66 155.598 209.58 155.767 209.503 155.937C209.427 156.107 209.354 156.28 209.285 156.454C209.217 156.628 209.153 156.803 209.094 156.98C209.034 157.157 208.979 157.335 208.929 157.515C208.878 157.695 208.832 157.876 208.79 158.058C208.748 158.24 208.71 158.423 208.678 158.607C208.644 158.791 208.616 158.976 208.592 159.161C208.568 159.346 208.549 159.532 208.534 159.718C208.52 159.904 208.51 160.091 208.504 160.278C208.498 160.464 208.497 160.651 208.501 160.838C208.505 161.024 208.513 161.211 208.526 161.398C208.539 161.584 208.556 161.77 208.578 161.955C208.599 162.141 208.626 162.326 208.657 162.51C208.688 162.694 208.724 162.878 208.763 163.06C208.803 163.242 208.848 163.424 208.897 163.604C208.946 163.785 208.999 163.964 209.057 164.141C209.115 164.319 209.177 164.495 209.243 164.67C209.309 164.844 209.38 165.017 209.455 165.188C209.53 165.36 209.609 165.529 209.692 165.696C209.775 165.863 209.862 166.028 209.954 166.192C210.045 166.354 210.14 166.515 210.239 166.673C210.338 166.832 210.441 166.987 210.548 167.14C210.655 167.294 210.766 167.445 210.88 167.592C210.994 167.74 211.112 167.885 211.233 168.027C211.354 168.169 211.479 168.308 211.607 168.444C211.736 168.58 211.867 168.713 212.002 168.842C212.137 168.971 212.274 169.097 212.415 169.22C212.556 169.343 212.7 169.462 212.847 169.577C212.993 169.693 213.143 169.805 213.295 169.913C213.447 170.022 213.602 170.126 213.76 170.227C213.917 170.328 214.077 170.424 214.239 170.517C214.401 170.61 214.565 170.699 214.732 170.783C214.898 170.868 215.067 170.949 215.237 171.025C215.408 171.102 215.58 171.174 215.754 171.242C215.928 171.31 216.103 171.374 216.28 171.433C216.458 171.492 216.636 171.547 216.816 171.598C216.996 171.649 217.177 171.695 217.359 171.736C217.541 171.778 217.724 171.815 217.908 171.848C218.092 171.881 218.277 171.909 218.462 171.933C218.647 171.956 218.833 171.975 219.019 171.99C219.205 172.004 219.392 172.014 219.579 172.02C219.766 172.025 219.952 172.026 220.139 172.022C220.326 172.018 220.512 172.01 220.699 171.997C220.885 171.984 221.071 171.967 221.257 171.944C221.442 171.922 221.626 171.895 221.81 171.864C221.994 171.833 222.177 171.798 222.36 171.757C222.542 171.717 222.723 171.673 222.903 171.624C223.083 171.575 223.262 171.521 223.439 171.464C223.616 171.406 223.792 171.344 223.967 171.277C224.141 171.211 224.314 171.14 224.484 171.065C224.655 170.991 224.824 170.912 224.991 170.828C225.158 170.745 225.323 170.658 225.486 170.567C225.648 170.476 225.809 170.38 225.967 170.281C226.125 170.182 226.281 170.079 226.434 169.972C226.587 169.866 226.737 169.755 226.884 169.641C227.032 169.527 227.177 169.409 227.319 169.288C227.461 169.167 227.599 169.042 227.735 168.914C227.871 168.786 228.003 168.655 228.132 168.52C228.262 168.386 228.388 168.248 228.51 168.107C228.632 167.966 228.751 167.823 228.867 167.677C228.982 167.53 229.094 167.381 229.202 167.229C229.31 167.076 229.415 166.922 229.515 166.764C229.616 166.608 229.712 166.448 229.805 166.286C229.898 166.124 229.986 165.96 230.071 165.794C230.156 165.628 230.236 165.459 230.313 165.289C230.389 165.119 230.461 164.947 230.53 164.773C230.597 164.599 230.661 164.424 230.721 164.247C230.78 164.07 230.835 163.892 230.885 163.713C230.936 163.533 230.982 163.352 231.024 163.171C231.066 162.989 231.103 162.806 231.136 162.622C231.168 162.438 231.197 162.254 231.22 162.069C231.244 161.884 231.264 161.699 231.278 161.513C231.293 161.327 231.303 161.14 231.309 160.954C231.314 160.767 231.315 160.581 231.311 160.394C231.307 160.208 231.299 160.022 231.286 159.835C231.274 159.649 231.256 159.464 231.234 159.278C231.213 159.093 231.186 158.908 231.155 158.725C231.124 158.541 231.089 158.357 231.049 158.175C231.009 157.993 230.965 157.812 230.916 157.631C230.867 157.452 230.814 157.273 230.756 157.095C230.699 156.918 230.637 156.742 230.571 156.567C230.504 156.393 230.434 156.22 230.359 156.049C230.284 155.879 230.206 155.71 230.123 155.543C230.04 155.376 229.953 155.21 229.862 155.047C229.77 154.885 229.675 154.724 229.577 154.566C229.477 154.408 229.374 154.253 229.268 154.1C229.162 153.946 229.051 153.796 228.937 153.648C228.823 153.501 228.705 153.356 228.584 153.214C228.463 153.072 228.339 152.933 228.211 152.797C228.083 152.661 227.952 152.529 227.818 152.399C227.683 152.27 227.546 152.144 227.405 152.021C227.265 151.898 227.121 151.779 226.975 151.664C226.829 151.548 226.679 151.436 226.527 151.328C226.375 151.22 226.221 151.115 226.064 151.014C225.907 150.914 225.747 150.817 225.586 150.724C225.424 150.631 225.26 150.542 225.093 150.457C224.927 150.372 224.759 150.292 224.589 150.215C224.419 150.139 224.247 150.066 224.074 149.998C223.9 149.93 223.725 149.866 223.548 149.807C223.371 149.747 223.193 149.692 223.013 149.641C222.834 149.59 222.653 149.544 222.471 149.502C222.289 149.46 222.107 149.422 221.923 149.389C221.74 149.356 221.555 149.328 221.37 149.304C221.185 149.28 221 149.261 220.814 149.245C220.628 149.231 220.441 149.221 220.255 149.215C220.069 149.209 219.882 149.208 219.696 149.212C219.509 149.215 219.323 149.223 219.137 149.236C218.951 149.248 218.765 149.265 218.58 149.287ZM183.501 159.288C178.415 161.053 181.557 164.438 184.015 167.184C188.658 172.371 193.896 177.172 199.544 181.251C209.674 188.567 206.228 184.323 207.04 197.354C207.507 204.843 209.187 212.406 209.055 219.884C221.456 212.744 221.352 214.884 233.276 214.062L233.861 214.027C234.051 208.363 231.084 187.279 232.622 185.829C233.408 185.087 234.686 184.738 235.674 184.318C240.555 182.068 257.611 170.943 259.418 165.599C259.919 164.117 258.917 162.382 257.447 161.94C252.297 160.395 226.368 198.811 188.723 163.433C187.302 162.097 185.522 159.661 183.501 159.288Z" fill="#465EBD"/>
</svg>
