<svg width="46" height="46" viewBox="0 0 46 46" fill="none" xmlns="http://www.w3.org/2000/svg">
<rect width="46" height="46" rx="16" fill="white"/>
<path d="M27 25.6667L23 23V16.3333M11 23C11 24.5759 11.3104 26.1363 11.9134 27.5922C12.5165 29.0481 13.4004 30.371 14.5147 31.4853C15.629 32.5996 16.9519 33.4835 18.4078 34.0866C19.8637 34.6896 21.4241 35 23 35C24.5759 35 26.1363 34.6896 27.5922 34.0866C29.0481 33.4835 30.371 32.5996 31.4853 31.4853C32.5996 30.371 33.4835 29.0481 34.0866 27.5922C34.6896 26.1363 35 24.5759 35 23C35 21.4241 34.6896 19.8637 34.0866 18.4078C33.4835 16.9519 32.5996 15.629 31.4853 14.5147C30.371 13.4004 29.0481 12.5165 27.5922 11.9134C26.1363 11.3104 24.5759 11 23 11C21.4241 11 19.8637 11.3104 18.4078 11.9134C16.9519 12.5165 15.629 13.4004 14.5147 14.5147C13.4004 15.629 12.5165 16.9519 11.9134 18.4078C11.3104 19.8637 11 21.4241 11 23Z" stroke="black" stroke-width="2.66667" stroke-linecap="round" stroke-linejoin="round"/>
</svg>
