<svg width="28" height="28" viewBox="0 0 28 28" fill="none" xmlns="http://www.w3.org/2000/svg">
<path d="M18 16.86L14 14.1934V7.52669M2 14.1934C2 15.7692 2.31039 17.3297 2.91345 18.7856C3.5165 20.2415 4.40042 21.5643 5.51472 22.6786C6.62902 23.7929 7.95189 24.6769 9.4078 25.2799C10.8637 25.883 12.4241 26.1934 14 26.1934C15.5759 26.1934 17.1363 25.883 18.5922 25.2799C20.0481 24.6769 21.371 23.7929 22.4853 22.6786C23.5996 21.5643 24.4835 20.2415 25.0866 18.7856C25.6896 17.3297 26 15.7692 26 14.1934C26 12.6175 25.6896 11.0571 25.0866 9.60116C24.4835 8.14525 23.5996 6.82238 22.4853 5.70808C21.371 4.59378 20.0481 3.70986 18.5922 3.10681C17.1363 2.50375 15.5759 2.19336 14 2.19336C12.4241 2.19336 10.8637 2.50375 9.4078 3.10681C7.95189 3.70986 6.62902 4.59378 5.51472 5.70808C4.40042 6.82238 3.5165 8.14525 2.91345 9.60116C2.31039 11.0571 2 12.6175 2 14.1934Z" stroke="#79B0F8" stroke-width="2.66667" stroke-linecap="round" stroke-linejoin="round"/>
</svg>
