<svg width="328" height="329" viewBox="0 0 328 329" fill="none" xmlns="http://www.w3.org/2000/svg">
<path d="M131.423 76.2083C128.41 75.4482 125.846 73.6437 125.779 70.2587C125.682 65.3992 127.582 58.9828 133.402 58.908C135.242 59.276 137.072 59.8451 138.889 60.3191L234.055 84.9506C237.798 85.9176 245.898 86.6935 245.385 92.0786C244.743 98.8141 243.241 103.905 235.678 103.188C233.903 110.061 232.352 117.1 230.109 123.835C223.506 143.666 205.506 159.161 184.967 163.01C181.751 163.613 176.153 163.17 175.101 167.286C174.002 171.587 179.724 174.629 182.261 176.978C197.675 191.247 205.889 210.414 202.244 231.668C201.718 234.733 200.861 237.735 200.083 240.743L196.683 253.871C199.174 254.475 201.835 255.326 202.216 258.279C202.44 260.022 200.574 266.592 199.501 267.911C198.156 269.565 196.34 270.099 194.306 270.275C192.676 269.966 191.025 269.436 189.416 269.018L94.8097 244.531C85.7149 242.181 80.069 242.263 84.2298 230.261C85.6549 226.149 88.6002 225.534 92.4285 226.891C94.244 219.859 95.8292 212.643 98.0342 205.729C104.519 185.396 122.003 170.312 142.871 166.332C145.251 165.878 148.119 165.911 150.278 164.74C157.76 160.683 148.947 155.176 146.083 152.599C130.347 138.441 122.241 117.698 126.174 96.551C126.611 94.2051 127.346 91.9283 127.947 89.6213L131.423 76.2083ZM132.12 63.8652C131.532 66.1 130.723 68.4625 130.634 70.7749L130.81 70.8327C138.367 73.28 137.583 71.3114 135.256 80.2871C133.289 87.8766 130.821 95.5448 130.277 103.411C129.064 120.944 136.418 137.852 149.827 149.207C151.484 150.609 153.421 151.788 154.946 153.325C160.59 159.013 158.108 167.774 150.622 169.968C148.992 170.446 147.255 170.585 145.583 170.875C129.521 173.662 114.97 182.997 106.997 197.455C103.678 203.473 102.234 209.18 100.525 215.77L97.3265 228.159L191.857 252.622C192.613 250.401 193.022 248.046 193.628 245.778L195.826 237.327C201.654 215.053 194.954 194.022 177.141 179.11C172.986 175.631 168.804 172.117 170.389 166.036C172.137 159.333 177.915 159.124 183.544 158.076C204.391 154.19 221.114 138.65 226.666 118.084C227.249 115.929 231.305 98.3606 232.423 97.6647C234.071 96.6382 237.023 98.0398 238.783 98.4104L240.467 91.904L132.12 63.8652ZM89.1367 231.129C88.5883 233.213 87.9261 235.323 87.5054 237.433L174.05 259.827C176.305 260.41 194.68 265.359 195.277 265.323C196.405 263.582 196.745 261.105 197.2 259.094L89.1367 231.129Z" fill="#465EBD"/>
<path d="M156.102 195.15C143.489 209.636 121.471 201.234 112.392 217.699C111.461 219.389 111.037 221.713 110.256 222.988C109.157 224.782 106.131 224.164 105.878 222.057C105.648 220.135 107.121 217.452 107.944 215.72C111.446 208.348 120.411 203.16 127.994 201.289C137.131 199.035 145.903 199.943 152.775 191.193C155.472 187.758 156.43 183.946 157.493 179.806L161.769 163.304C164.22 153.865 163.376 151.724 155.533 145.634C145.248 137.648 138.356 125.825 136.794 112.885C136.536 110.748 136.404 108.447 139.101 108.339C141.785 108.887 144.478 109.726 147.135 110.414L206.709 125.844C209.766 126.629 216.704 127.117 213.317 131.903C206.412 141.66 195.599 148.615 184.074 151.445C177.976 152.942 172.837 151.945 168.777 157.916C167.267 160.136 160.676 186.348 160.642 190.194C160.519 204.503 174.154 209.292 181.651 218.643C184.864 222.649 190.998 237.357 187.588 241.959C186.845 242.962 185.113 243.307 184.14 242.443C182.008 240.549 186.225 227.842 172.346 216.423C164.708 210.319 158.459 205.268 156.102 195.15ZM143.265 114.582L142.137 114.333L142.005 114.425C142.678 123.119 150.566 134.927 156.872 140.33C161.431 144.237 165.487 145.946 167.229 152.152C172.258 147.005 181.86 147.468 189.46 144.473C196.156 141.67 203.044 137.08 207.494 131.204L143.265 114.582Z" fill="#465EBD"/>
</svg>
