<svg width="88" height="88" viewBox="0 0 88 88" fill="none" xmlns="http://www.w3.org/2000/svg">
<rect width="88" height="88" rx="16" fill="#465EBD"/>
<path d="M49.7396 59.942H39.5367C34.1247 59.942 28.9344 57.7921 25.1076 53.9653C21.2808 50.1385 19.1309 44.9482 19.1309 39.5362V26.7826H29.3338V39.5362C29.3338 42.2422 30.4087 44.8373 32.3221 46.7508C34.2355 48.6642 36.8307 49.7391 39.5367 49.7391V26.7826H49.7396V38.2609H49.8161C52.6119 37.9126 55.1842 36.5547 57.0491 34.4428C58.9139 32.3308 59.9429 29.6103 59.9425 26.7928H70.1454L69.273 31.1571C68.7502 33.7691 67.6379 36.2273 66.0209 38.3442C64.4039 40.4611 62.3249 42.1809 59.9425 43.3725C62.2594 44.1444 64.3262 45.5251 65.9264 47.3699C67.5267 49.2147 68.6015 51.4558 69.0383 53.8585L70.1454 59.9522H59.9425C59.9429 57.1347 58.9139 54.4142 57.0491 52.3022C55.1842 50.1903 52.6119 48.8325 49.8161 48.4842V59.9624L49.7396 59.942Z" stroke="white" stroke-width="2.67" stroke-linecap="round" stroke-linejoin="round"/>
</svg>
