<svg width="88" height="88" viewBox="0 0 88 88" fill="none" xmlns="http://www.w3.org/2000/svg">
<rect width="88" height="88" rx="16" fill="#465EBD"/>
<path d="M22.957 65.0004L27.1657 55.3077C23.9459 50.7369 22.5047 45.1482 23.1127 39.5904C23.7208 34.0325 26.3362 28.8876 30.4682 25.1212C34.6001 21.3547 39.9646 19.2257 45.5549 19.1336C51.1451 19.0414 56.5768 20.9926 60.8307 24.6209C65.0845 28.2491 67.868 33.3051 68.6588 38.8399C69.4497 44.3747 68.1934 50.0078 65.1259 54.6822C62.0584 59.3565 57.3904 62.7507 51.998 64.2278C46.6057 65.7049 40.8596 65.1634 35.8382 62.7048L22.957 65.0004Z" stroke="white" stroke-width="2.66667" stroke-linecap="round" stroke-linejoin="round"/>
<path d="M38.2617 36.9419C38.2617 37.2801 38.3961 37.6045 38.6353 37.8437C38.8744 38.0829 39.1988 38.2173 39.5371 38.2173C39.8753 38.2173 40.1997 38.0829 40.4389 37.8437C40.6781 37.6045 40.8124 37.2801 40.8124 36.9419V34.3912C40.8124 34.0529 40.6781 33.7285 40.4389 33.4894C40.1997 33.2502 39.8753 33.1158 39.5371 33.1158C39.1988 33.1158 38.8744 33.2502 38.6353 33.4894C38.3961 33.7285 38.2617 34.0529 38.2617 34.3912V36.9419ZM38.2617 36.9419C38.2617 40.3244 39.6054 43.5683 41.9972 45.9601C44.3889 48.3518 47.6329 49.6955 51.0153 49.6955M51.0153 49.6955H53.5661C53.9043 49.6955 54.2287 49.5612 54.4679 49.322C54.7071 49.0828 54.8414 48.7584 54.8414 48.4202C54.8414 48.0819 54.7071 47.7575 54.4679 47.5183C54.2287 47.2792 53.9043 47.1448 53.5661 47.1448H51.0153C50.6771 47.1448 50.3527 47.2792 50.1135 47.5183C49.8743 47.7575 49.74 48.0819 49.74 48.4202C49.74 48.7584 49.8743 49.0828 50.1135 49.322C50.3527 49.5612 50.6771 49.6955 51.0153 49.6955Z" stroke="white" stroke-width="2.66667" stroke-linecap="round" stroke-linejoin="round"/>
</svg>
